<?xml version="1.0" encoding="utf-8"?>
<!-- Generator: Adobe Illustrator 15.1.0, SVG Export Plug-In . SVG Version: 6.00 Build 0)  -->
<!DOCTYPE svg PUBLIC "-//W3C//DTD SVG 1.1//EN" "http://www.w3.org/Graphics/SVG/1.1/DTD/svg11.dtd">
<svg version="1.1" id="Layer_1" xmlns="http://www.w3.org/2000/svg" xmlns:xlink="http://www.w3.org/1999/xlink" x="0px" y="0px"
	 width="500px" height="500px" viewBox="0 0 500 500" enable-background="new 0 0 500 500" xml:space="preserve">
<path fill="#6699FF" d="M307.962,263.24h-115.92c-43.557,0-78.879,35.322-78.879,78.879c0,43.57,35.322,78.879,78.879,78.879h115.92
	c43.566,0,78.89-35.309,78.89-78.879C386.852,298.563,351.528,263.24,307.962,263.24z M304.262,397.311
	c-30.479,0-55.181-24.709-55.181-55.189s24.702-55.182,55.181-55.182c30.479,0,55.191,24.701,55.191,55.182
	S334.741,397.311,304.262,397.311z"/>
<path fill="#0E8BE0" d="M465.61,283.771c-19.651-47.814-61.333-84.307-112.17-95.402c-13.263-2.895-26.424-3.146-39.876-3.889
	c-1.394-0.078-2.781-0.217-4.167-0.359c-0.231-0.043-0.547-0.098-0.976-0.17c-2.814-0.469-5.593-1.131-8.35-1.859
	c-2.726-0.721-5.398-1.629-8.045-2.596c-0.3-0.107-1.082-0.436-1.73-0.707c-1.358-0.623-2.701-1.281-4.031-1.961
	c-2.469-1.262-4.849-2.688-7.192-4.166c-1.169-0.736-2.303-1.525-3.437-2.313c-0.265-0.184-0.964-0.713-1.523-1.137
	c-4.342-3.523-8.31-7.492-11.957-11.725c-0.266-0.309-1.073-1.33-1.513-1.877c-0.484-0.676-0.963-1.355-1.438-2.039
	c-1.581-2.273-3.004-4.65-4.371-7.055c-1.042-1.826-1.986-3.703-2.884-5.605c-0.155-0.373-0.919-2.109-1.105-2.598
	c-0.67-1.752-1.247-3.537-1.809-5.326c-0.853-2.713-1.515-5.479-2.11-8.254c-0.15-0.705-0.286-1.414-0.412-2.123
	c-0.052-0.359-0.365-2.369-0.424-2.922c-0.642-6.277-0.501-12.615,0.133-18.883c0.043-0.23,0.098-0.541,0.169-0.963
	c0.233-1.41,0.533-2.811,0.834-4.209c0.595-2.771,1.383-5.5,2.232-8.201c0.422-1.344,0.904-2.664,1.387-3.984
	c0.118-0.322,0.484-1.199,0.765-1.867c1.181-2.576,2.508-5.08,3.907-7.541c1.37-2.406,2.898-4.713,4.475-6.982
	c0.211-0.305,0.885-1.191,1.325-1.77c0.571-0.689,1.154-1.375,1.739-2.057c1.798-2.086,3.733-4.049,5.707-5.967
	c0.988-0.959,2.02-1.873,3.05-2.787c0.416-0.371,2.268-1.852,2.9-2.383c4.04-2.947,8.343-5.52,12.792-7.791
	c0.611-0.313,1.23-0.611,1.852-0.902c-0.014,0.02,2.12-0.924,2.671-1.135c3.076-1.178,6.235-2.117,9.416-2.957
	c2.156-0.568,4.341-1.018,6.533-1.41c0.656-0.1,2.201-0.338,2.676-0.387c1.456-0.15,2.918-0.23,4.376-0.311
	c2.953-0.162,5.911-0.117,8.861,0c1.463,0.057,2.922,0.184,4.378,0.311c0.399,0.037,0.795,0.088,1.192,0.131
	c0.239,0.043,0.57,0.094,1.038,0.168c5.599,0.93,11.071,2.508,16.396,4.455c0.314,0.115,1.172,0.473,1.837,0.752
	c0.9,0.418,1.795,0.848,2.684,1.285c2.904,1.428,5.696,3.072,8.431,4.795c1.17,0.738,2.305,1.525,3.438,2.314
	c0.261,0.184,0.953,0.707,1.509,1.129c1.848,1.504,3.631,3.09,5.363,4.723c2.005,1.889,3.882,3.91,5.708,5.967
	c0.526,0.592,1.03,1.205,1.535,1.816c-0.56-0.633,1.884,2.521,2.317,3.143c2.89,4.16,5.33,8.615,7.48,13.195
	c0.291,0.676,0.74,1.705,0.876,2.063c0.505,1.314,0.946,2.648,1.389,3.984c1.042,3.143,1.837,6.361,2.532,9.598
	c0.15,0.705,0.286,1.412,0.412,2.125c0.052,0.361,0.367,2.367,0.421,2.918c0.3,2.928,0.395,5.869,0.417,8.809
	c0.078,10.111,8.377,18.551,18.552,18.551c10.049,0,18.629-8.438,18.549-18.551c-0.216-27.539-10.342-53.111-28.244-73.885
	c-17.648-20.477-43.058-32.521-69.515-36.076c-53.909-7.242-105.59,28.957-120.112,80.711c-7.499,26.719-3.768,55.244,8.372,79.932
	c11.776,23.947,33.097,41.969,57.422,52.148c12.114,5.068,25.13,7.492,38.231,8.008c5.926,0.232,11.797,0.229,17.71,0.82
	c0.35,0.035,1.361,0.168,2.116,0.268c1.007,0.16,2.011,0.33,3.015,0.504c3.3,0.578,6.568,1.326,9.817,2.143
	c5.503,1.381,10.894,3.188,16.182,5.234c0.286,0.113,0.521,0.203,0.712,0.275c0.018,0.008,0.03,0.014,0.052,0.021
	c1.285,0.559,2.554,1.158,3.822,1.756c2.947,1.393,5.827,2.932,8.67,4.527c4.852,2.725,9.496,5.811,13.985,9.094
	c0.146,0.107,0.271,0.199,0.387,0.283c0.078,0.064,0.16,0.129,0.255,0.203c1.086,0.861,2.143,1.758,3.204,2.65
	c2.471,2.086,4.834,4.295,7.153,6.545c3.979,3.861,7.662,8.014,11.154,12.316c0.038,0.049,0.072,0.088,0.106,0.135
	c0.107,0.145,0.229,0.309,0.377,0.506c0.834,1.113,1.629,2.25,2.427,3.387c1.864,2.658,3.595,5.406,5.268,8.188
	c2.868,4.771,5.375,9.75,7.647,14.826c0.081,0.211,0.189,0.482,0.333,0.84c0.523,1.311,1.006,2.639,1.489,3.967
	c1.132,3.109,2.103,6.277,3.008,9.459c1.434,5.039,2.493,10.176,3.33,15.342c0.107,0.762,0.279,1.971,0.323,2.363
	c0.161,1.459,0.277,2.92,0.393,4.383c0.272,3.447,0.361,6.906,0.381,10.365c0.027,5.238-0.325,10.467-0.896,15.67
	c-0.089,0.586-0.322,2.309-0.401,2.787c-0.234,1.422-0.513,2.838-0.792,4.252c-0.643,3.281-1.456,6.523-2.337,9.746
	c-0.748,2.738-1.622,5.441-2.54,8.127c-0.453,1.338-0.951,2.66-1.448,3.982c-0.139,0.371-0.62,1.559-0.892,2.238
	c-2.225,5.066-4.793,9.977-7.598,14.742c-1.412,2.4-2.929,4.734-4.48,7.045c-0.776,1.152-1.585,2.281-2.394,3.41
	c-0.205,0.287-0.846,1.135-1.287,1.719c-3.465,4.348-7.225,8.451-11.171,12.359c-1.968,1.949-4.022,3.813-6.104,5.639
	c-1.041,0.916-2.11,1.799-3.175,2.682c-0.243,0.201-0.927,0.734-1.481,1.17c-4.538,3.391-9.312,6.461-14.224,9.285
	c-2.424,1.391-4.909,2.67-7.411,3.914c-1.254,0.623-2.527,1.207-3.803,1.795c-0.249,0.113-0.887,0.385-1.479,0.637
	c-5.452,2.195-11.063,3.977-16.744,5.465c-2.775,0.729-5.585,1.326-8.399,1.879c-1.418,0.279-2.843,0.512-4.271,0.748
	c-0.243,0.037-0.438,0.074-0.619,0.104c-0.068,0.008-0.133,0.016-0.21,0.025c-5.381,0.654-10.821,0.934-16.239,0.934
	c-2.357,0-4.714,0-7.071,0c-13.321,0.002-26.643,0.002-39.964,0.002c-29.275,0-58.551,0.002-87.827,0.002
	c-3.814,0-7.617-0.014-11.431-0.195c-2.932-0.141-5.855-0.416-8.773-0.738c-0.011,0-0.021,0-0.031-0.002
	c-0.212-0.035-0.473-0.076-0.799-0.127c-1.427-0.219-2.847-0.484-4.269-0.75c-6.085-1.127-12.069-2.762-17.943-4.697
	c-2.222-0.73-4.411-1.557-6.591-2.41c-0.684-0.283-1.746-0.717-2.089-0.871c-1.279-0.572-2.541-1.184-3.803-1.795
	c-5.439-2.635-10.661-5.703-15.708-9.025c-1.839-1.207-3.627-2.492-5.401-3.795c-0.53-0.41-1.671-1.281-2.003-1.549
	c-1.076-0.873-2.125-1.777-3.176-2.684c-4.549-3.918-8.781-8.193-12.787-12.662c-1.424-1.588-2.784-3.232-4.126-4.893
	c-0.325-0.432-1.372-1.787-1.648-2.164c-0.82-1.119-1.605-2.266-2.392-3.41c-3.419-4.982-6.435-10.23-9.175-15.613
	c-0.963-1.887-1.848-3.816-2.714-5.752c-0.123-0.332-0.895-2.182-1.08-2.66c-0.511-1.316-0.979-2.65-1.45-3.982
	c-2.054-5.83-3.623-11.822-4.876-17.873c-0.293-1.412-0.541-2.832-0.789-4.254c-0.067-0.379-0.24-1.551-0.354-2.309
	c-0.282-2.41-0.499-4.828-0.664-7.25c-0.5-7.297-0.308-14.619,0.321-21.902c0.014-0.172,0.391-3.293,0.405-3.615
	c0.215-1.375,0.451-2.748,0.699-4.117c0.639-3.553,1.487-7.061,2.403-10.547c0.908-3.455,2.015-6.854,3.186-10.225
	c0.583-1.676,1.23-3.33,1.877-4.982c0.825-2.035,0.888-2.186,0.19-0.459c0.476-1.074,0.969-2.141,1.474-3.203
	c1.737-3.717,3.929-7.178,5.751-10.838c0.004-0.01,0.008-0.016,0.012-0.021c0.011-0.023,0.022-0.043,0.034-0.064
	c0.012-0.025,0.021-0.053,0.033-0.076c20.165-42.631,40.332-85.262,60.497-127.893c19.735-41.721,39.471-83.443,59.207-125.164
	c4.324-9.141,2.627-19.943-6.655-25.381c-8.146-4.771-21.058-2.484-25.381,6.656c-20.188,42.676-40.376,85.355-60.564,128.031
	c-19.735,41.723-39.471,83.443-59.207,125.166c0,0.002-0.002,0.004-0.004,0.008c-6.817,13.746-13.386,27.055-17.117,42.063
	c-3.754,15.104-5.163,31.035-4.263,46.564c1.508,26.045,9.461,51.531,23.135,73.754c27.444,44.605,76.035,72.219,128.087,74.688
	c24.162,1.143,48.58,0.121,72.758,0.119c24.029,0,48.058,0,72.087,0c52.29-0.002,100.414-26.482,130.23-68.998
	C479.108,388.619,485.04,331.045,465.61,283.771z"/>
</svg>
