<?xml version="1.0" encoding="utf-8"?>
<!-- Generator: Adobe Illustrator 15.1.0, SVG Export Plug-In . SVG Version: 6.00 Build 0)  -->
<!DOCTYPE svg PUBLIC "-//W3C//DTD SVG 1.1//EN" "http://www.w3.org/Graphics/SVG/1.1/DTD/svg11.dtd">
<svg version="1.1" id="Layer_1" xmlns="http://www.w3.org/2000/svg" xmlns:xlink="http://www.w3.org/1999/xlink" x="0px" y="0px"
	 width="400px" height="400px" viewBox="0 0 400 400" enable-background="new 0 0 400 400" xml:space="preserve">
<g>
	<g>
		<path fill="#6699FF" d="M236.506,165.803h-73.01c-27.438,0-49.684,22.247-49.684,49.683c0,27.442,22.246,49.683,49.684,49.683
			h73.01c27.442,0,49.69-22.24,49.69-49.683C286.196,188.05,263.948,165.803,236.506,165.803z M234.179,250.247
			c-19.2,0-34.757-15.563-34.757-34.76c0-19.199,15.557-34.756,34.757-34.756c19.197,0,34.76,15.557,34.76,34.756
			C268.938,234.685,253.376,250.247,234.179,250.247z"/>
		<path fill="#0E8BE0" d="M335.803,178.733c-12.376-30.115-38.629-53.1-70.648-60.089c-8.356-1.82-16.646-1.983-25.117-2.45
			c-0.88-0.048-1.754-0.137-2.626-0.227c-0.146-0.026-0.345-0.062-0.614-0.104c-1.773-0.295-3.522-0.714-5.259-1.173
			c-1.717-0.453-3.401-1.025-5.066-1.634c-0.189-0.069-0.684-0.275-1.091-0.446c-0.854-0.391-1.7-0.808-2.538-1.236
			c-1.556-0.793-3.055-1.692-4.531-2.623c-0.735-0.462-1.45-0.961-2.163-1.456c-0.169-0.116-0.609-0.449-0.96-0.716
			c-2.736-2.22-5.234-4.72-7.533-7.385c-0.165-0.195-0.676-0.837-0.952-1.182c-0.305-0.427-0.608-0.854-0.906-1.286
			c-0.995-1.431-1.894-2.926-2.755-4.44c-0.654-1.152-1.25-2.336-1.813-3.532c-0.1-0.237-0.58-1.329-0.698-1.636
			c-0.423-1.104-0.786-2.229-1.14-3.357c-0.537-1.706-0.951-3.449-1.329-5.197c-0.094-0.441-0.178-0.89-0.261-1.337
			c-0.028-0.226-0.229-1.493-0.266-1.84c-0.402-3.955-0.315-7.944,0.083-11.895c0.027-0.146,0.062-0.338,0.108-0.604
			c0.145-0.891,0.335-1.771,0.524-2.652c0.375-1.748,0.871-3.463,1.405-5.166c0.267-0.846,0.57-1.678,0.874-2.509
			c0.073-0.203,0.305-0.755,0.482-1.178c0.743-1.621,1.579-3.2,2.463-4.748c0.86-1.515,1.824-2.971,2.815-4.397
			c0.132-0.193,0.558-0.751,0.834-1.115c0.36-0.436,0.729-0.869,1.098-1.295c1.131-1.314,2.35-2.55,3.594-3.758
			c0.621-0.605,1.272-1.182,1.921-1.758c0.262-0.231,1.428-1.164,1.828-1.498c2.543-1.859,5.255-3.479,8.058-4.91
			c0.386-0.194,0.773-0.386,1.164-0.567c-0.008,0.013,1.335-0.581,1.684-0.714c1.936-0.741,3.926-1.333,5.932-1.865
			c1.356-0.356,2.733-0.641,4.113-0.888c0.413-0.06,1.388-0.211,1.686-0.242c0.917-0.094,1.839-0.143,2.757-0.195
			c1.857-0.104,3.722-0.074,5.581,0c0.92,0.036,1.839,0.116,2.757,0.195c0.253,0.022,0.501,0.058,0.75,0.084
			c0.149,0.022,0.362,0.06,0.656,0.105c3.526,0.584,6.972,1.578,10.326,2.806c0.197,0.071,0.738,0.297,1.155,0.473
			c0.568,0.263,1.133,0.534,1.692,0.809c1.829,0.9,3.588,1.937,5.31,3.021c0.737,0.466,1.451,0.962,2.164,1.457
			c0.167,0.116,0.602,0.447,0.953,0.712c1.165,0.948,2.284,1.945,3.377,2.976c1.263,1.188,2.444,2.46,3.596,3.758
			c0.332,0.373,0.648,0.758,0.965,1.143c-0.353-0.398,1.187,1.588,1.461,1.98c1.82,2.621,3.355,5.425,4.715,8.312
			c0.181,0.426,0.465,1.072,0.549,1.299c0.318,0.826,0.595,1.669,0.877,2.509c0.654,1.98,1.155,4.006,1.593,6.045
			c0.096,0.446,0.181,0.89,0.261,1.338c0.031,0.23,0.229,1.493,0.265,1.838c0.19,1.843,0.247,3.697,0.263,5.549
			c0.049,6.369,5.274,11.685,11.684,11.685c6.332,0,11.734-5.315,11.684-11.685c-0.137-17.344-6.514-33.451-17.789-46.537
			c-11.115-12.896-27.12-20.482-43.784-22.721c-33.956-4.563-66.508,18.238-75.653,50.835c-4.725,16.831-2.374,34.797,5.273,50.344
			c7.416,15.086,20.848,26.437,36.165,32.847c7.63,3.193,15.828,4.72,24.084,5.044c3.729,0.148,7.43,0.145,11.151,0.518
			c0.223,0.021,0.859,0.106,1.335,0.17c0.633,0.1,1.265,0.206,1.897,0.318c2.078,0.364,4.138,0.833,6.185,1.349
			c3.466,0.87,6.86,2.007,10.192,3.296c0.182,0.07,0.328,0.128,0.446,0.175c0.012,0.004,0.021,0.008,0.033,0.012
			c0.81,0.353,1.607,0.729,2.407,1.107c1.856,0.876,3.672,1.847,5.462,2.851c3.058,1.717,5.982,3.659,8.81,5.728
			c0.092,0.068,0.169,0.127,0.242,0.179c0.05,0.039,0.104,0.081,0.16,0.127c0.685,0.544,1.35,1.104,2.021,1.67
			c1.553,1.313,3.045,2.702,4.505,4.123c2.504,2.431,4.826,5.047,7.025,7.757c0.022,0.031,0.042,0.055,0.065,0.087
			c0.069,0.087,0.145,0.193,0.239,0.318c0.523,0.701,1.026,1.415,1.526,2.132c1.175,1.675,2.265,3.404,3.319,5.156
			c1.808,3.004,3.387,6.141,4.817,9.337c0.052,0.134,0.118,0.304,0.209,0.531c0.33,0.824,0.633,1.661,0.937,2.495
			c0.713,1.961,1.325,3.957,1.897,5.962c0.901,3.173,1.566,6.408,2.097,9.663c0.066,0.479,0.176,1.241,0.203,1.487
			c0.102,0.918,0.174,1.84,0.246,2.762c0.171,2.167,0.227,4.349,0.241,6.528c0.017,3.297-0.205,6.593-0.564,9.87
			c-0.056,0.368-0.205,1.452-0.255,1.753c-0.146,0.896-0.32,1.788-0.496,2.68c-0.408,2.065-0.919,4.108-1.472,6.137
			c-0.473,1.726-1.024,3.428-1.602,5.122c-0.286,0.841-0.6,1.674-0.911,2.508c-0.088,0.232-0.392,0.981-0.563,1.41
			c-1.401,3.188-3.021,6.284-4.785,9.285c-0.89,1.509-1.844,2.98-2.822,4.437c-0.489,0.724-0.997,1.438-1.507,2.146
			c-0.13,0.181-0.534,0.717-0.812,1.084c-2.181,2.738-4.55,5.321-7.035,7.783c-1.24,1.229-2.534,2.4-3.846,3.554
			c-0.656,0.576-1.33,1.134-2,1.687c-0.152,0.129-0.584,0.463-0.934,0.738c-2.859,2.135-5.865,4.071-8.958,5.849
			c-1.526,0.878-3.092,1.683-4.667,2.466c-0.791,0.391-1.595,0.762-2.396,1.129c-0.158,0.072-0.561,0.244-0.933,0.401
			c-3.436,1.384-6.969,2.506-10.546,3.445c-1.749,0.456-3.519,0.831-5.29,1.181c-0.895,0.178-1.793,0.322-2.69,0.473
			c-0.153,0.025-0.277,0.046-0.391,0.066c-0.044,0.003-0.083,0.008-0.132,0.015c-3.389,0.408-6.816,0.587-10.229,0.587
			c-1.487,0-2.97,0-4.455,0c-8.389,0-16.779,0-25.17,0c-18.439,0.003-36.878,0.003-55.319,0.003c-2.402,0-4.797-0.01-7.2-0.123
			c-1.846-0.087-3.688-0.262-5.526-0.467c-0.004,0-0.012,0-0.02,0c-0.133-0.022-0.295-0.047-0.503-0.079
			c-0.898-0.139-1.791-0.305-2.688-0.471c-3.83-0.713-7.601-1.74-11.302-2.96c-1.399-0.461-2.777-0.981-4.15-1.519
			c-0.432-0.179-1.103-0.451-1.316-0.549c-0.805-0.362-1.6-0.745-2.395-1.133c-3.427-1.656-6.714-3.591-9.895-5.684
			c-1.158-0.759-2.285-1.568-3.402-2.39c-0.333-0.258-1.053-0.808-1.261-0.976c-0.679-0.551-1.341-1.12-2.001-1.69
			c-2.865-2.468-5.531-5.159-8.053-7.977c-0.898-1-1.754-2.037-2.6-3.083c-0.206-0.269-0.865-1.121-1.038-1.361
			c-0.517-0.704-1.012-1.426-1.507-2.146c-2.154-3.14-4.054-6.443-5.779-9.834c-0.605-1.189-1.163-2.404-1.71-3.621
			c-0.077-0.211-0.562-1.375-0.68-1.677c-0.322-0.829-0.618-1.669-0.912-2.508c-1.295-3.673-2.283-7.447-3.073-11.259
			c-0.186-0.889-0.34-1.786-0.497-2.68c-0.04-0.236-0.149-0.977-0.223-1.455c-0.179-1.516-0.314-3.041-0.416-4.564
			c-0.317-4.597-0.196-9.209,0.2-13.797c0.01-0.106,0.246-2.074,0.257-2.276c0.134-0.868,0.281-1.729,0.438-2.594
			c0.402-2.235,0.938-4.444,1.514-6.643c0.571-2.177,1.268-4.317,2.009-6.439c0.366-1.058,0.773-2.1,1.18-3.139
			c0.521-1.282,0.56-1.378,0.121-0.288c0.299-0.679,0.61-1.351,0.929-2.017c1.094-2.343,2.475-4.526,3.621-6.826
			c0.002-0.01,0.007-0.011,0.009-0.017c0.008-0.014,0.013-0.025,0.021-0.042c0.008-0.015,0.012-0.03,0.019-0.046
			c12.703-26.852,25.404-53.705,38.106-80.555c12.433-26.279,24.861-52.557,37.291-78.834c2.726-5.757,1.653-12.561-4.192-15.985
			c-5.131-3.007-13.262-1.567-15.985,4.189c-12.716,26.882-25.433,53.764-38.146,80.644c-12.433,26.277-24.861,52.557-37.292,78.834
			c0,0-0.002,0.004-0.004,0.004c-4.293,8.663-8.428,17.043-10.78,26.496c-2.366,9.514-3.251,19.549-2.685,29.33
			c0.95,16.404,5.959,32.457,14.57,46.454c17.286,28.096,47.893,45.485,80.676,47.041c15.222,0.721,30.6,0.077,45.831,0.076
			c15.133,0,30.267,0,45.402,0c32.935,0,63.247-16.681,82.028-43.458C344.303,244.772,348.042,208.509,335.803,178.733z"/>
	</g>
	<g>
		<g>
			<path fill="#0E8BE0" d="M6.854,387.589c0,1.533,0.543,2.841,1.631,3.928c1.085,1.087,2.393,1.63,3.926,1.63h10.779
				c0.939,0,1.742,0.334,2.409,1c0.667,0.667,1,1.471,1,2.408v0.074c0,0.939-0.333,1.729-1,2.371c-0.667,0.666-1.47,1-2.409,1H12.41
				c-3.433,0-6.36-1.209-8.78-3.631c-2.422-2.42-3.63-5.346-3.63-8.78v-39.862c0-0.939,0.331-1.74,0.998-2.409
				c0.668-0.642,1.46-0.963,2.373-0.963H3.48c0.913,0,1.705,0.321,2.373,0.963c0.666,0.669,1,1.47,1,2.409V387.589z"/>
			<path fill="#0E8BE0" d="M65.202,365.472c3.952,3.951,5.929,8.72,5.929,14.3v16.857c0,0.939-0.333,1.729-1,2.371
				c-0.668,0.666-1.458,1-2.373,1h-0.111c-0.913,0-1.703-0.334-2.371-1c-0.666-0.642-1-1.432-1-2.371v-1.705
				C60.447,398.309,55.989,400,50.903,400c-5.583,0-10.351-1.976-14.302-5.927s-5.928-8.719-5.928-14.302
				c0-5.58,1.977-10.349,5.928-14.3s8.719-5.927,14.302-5.927C56.484,359.545,61.252,361.521,65.202,365.472z M41.417,370.326
				c-2.594,2.617-3.888,5.767-3.888,9.445c0,3.705,1.294,6.867,3.888,9.485c2.618,2.593,5.781,3.89,9.486,3.89
				c3.703,0,6.853-1.297,9.446-3.89c2.617-2.618,3.926-5.78,3.926-9.485c0-3.679-1.309-6.828-3.926-9.445
				c-2.594-2.617-5.743-3.928-9.446-3.928C47.198,366.398,44.035,367.709,41.417,370.326z"/>
			<path fill="#0E8BE0" d="M82.022,344.354c0.913,0,1.703,0.321,2.371,0.963c0.666,0.669,1,1.47,1,2.409v16.895
				c3.803-3.385,8.261-5.076,13.374-5.076c5.581,0,10.349,1.976,14.301,5.927c3.951,3.951,5.927,8.72,5.927,14.3
				c0,5.583-1.976,10.351-5.927,14.302c-3.952,3.951-8.72,5.927-14.301,5.927c-5.58,0-10.336-1.963-14.262-5.889
				c-3.953-3.93-5.939-8.671-5.966-14.227v-32.158c0-0.939,0.334-1.74,1-2.409c0.667-0.642,1.458-0.963,2.371-0.963H82.022z
				 M98.768,366.472c-3.703,0-6.868,1.31-9.484,3.928c-2.593,2.618-3.89,5.779-3.89,9.485c0,3.68,1.297,6.828,3.89,9.446
				c2.616,2.618,5.781,3.927,9.484,3.927c3.704,0,6.854-1.309,9.448-3.927c2.616-2.618,3.926-5.767,3.926-9.446
				c0-3.706-1.31-6.867-3.926-9.485C105.621,367.781,102.472,366.472,98.768,366.472z"/>
			<path fill="#0E8BE0" d="M162.785,371.362c0.396,0.841,0.433,1.705,0.112,2.593c-0.321,0.865-0.916,1.496-1.78,1.891
				c-3.459,1.557-8.002,3.606-13.633,6.149c-6.989,3.162-11.521,5.212-13.597,6.15c2.667,3.408,6.174,5.112,10.523,5.112
				c2.889,0,5.507-0.853,7.854-2.557c2.272-1.654,3.864-3.803,4.777-6.445c0.544-1.532,1.632-2.297,3.262-2.297
				c1.16,0,2.086,0.48,2.778,1.444c0.667,0.938,0.803,1.964,0.407,3.074c-1.384,4.001-3.803,7.237-7.26,9.706
				c-3.534,2.545-7.474,3.816-11.818,3.816c-5.583,0-10.351-1.976-14.302-5.927c-3.953-3.951-5.929-8.719-5.929-14.302
				c0-5.58,1.976-10.349,5.929-14.3c3.951-3.951,8.719-5.927,14.302-5.927c4.024,0,7.704,1.099,11.039,3.296
				C158.734,364.989,161.18,367.831,162.785,371.362z M144.411,366.472c-3.706,0-6.868,1.31-9.484,3.928
				c-2.595,2.618-3.891,5.779-3.891,9.485c0,0.665,0.049,1.32,0.146,1.962l23.451-10.596
				C151.967,368.064,148.558,366.472,144.411,366.472z"/>
			<path fill="#0E8BE0" d="M175.344,344.354c0.915,0,1.705,0.321,2.371,0.963c0.668,0.669,1.001,1.47,1.001,2.409v48.902
				c0,0.939-0.333,1.729-1.001,2.371c-0.666,0.666-1.456,1-2.371,1h-0.111c-0.913,0-1.705-0.334-2.369-1
				c-0.667-0.642-1.002-1.432-1.002-2.371v-48.902c0-0.939,0.335-1.74,1.002-2.409c0.664-0.642,1.456-0.963,2.369-0.963H175.344z"/>
			<path fill="#6699FF" d="M202.426,351.098c-2.42,0-4.482,0.853-6.186,2.557c-1.705,1.704-2.558,3.766-2.558,6.188
				c0,2.938,1.334,5.174,4.001,6.705c1.088,0.617,4.15,1.655,9.189,3.111c4.051,1.211,6.989,2.643,8.817,4.297
				c2.667,2.421,4.001,5.867,4.001,10.337c0,4.348-1.545,8.052-4.631,11.114c-3.063,3.063-6.757,4.594-11.078,4.594h-14.115
				c-0.913,0-1.704-0.334-2.37-1s-1-1.457-1-2.371v-0.223c0-0.913,0.334-1.705,1-2.371c0.666-0.667,1.457-0.999,2.37-0.999h14.486
				c2.395,0,4.459-0.854,6.188-2.558c1.703-1.704,2.556-3.766,2.556-6.187c0-2.889-1.335-5.136-4.002-6.743
				c-1.162-0.689-4.223-1.814-9.188-3.37c-4.074-1.334-7.014-2.816-8.816-4.447c-2.668-2.394-4.001-5.691-4.001-9.89
				c0-4.348,1.53-8.053,4.593-11.115c3.063-3.062,6.766-4.594,11.115-4.594h9.964c0.938,0,1.742,0.334,2.408,1
				c0.644,0.643,0.964,1.433,0.964,2.372v0.222c0,0.914-0.32,1.705-0.964,2.37c-0.666,0.668-1.47,1.001-2.408,1.001H202.426z"/>
			<path fill="#6699FF" d="M232.842,383.293c0,2.715,0.964,5.037,2.89,6.964c1.926,1.926,4.249,2.89,6.966,2.89
				c2.716,0,5.037-0.964,6.965-2.89c1.926-1.927,2.89-4.249,2.89-6.964v-20.34c0-0.938,0.334-1.742,1.001-2.409
				c0.666-0.665,1.467-0.999,2.406-0.999h0.074c0.938,0,1.73,0.334,2.372,0.999c0.666,0.667,1,1.471,1,2.409v20.34
				c0,2.715,0.962,5.037,2.89,6.964c1.926,1.926,4.248,2.89,6.964,2.89c2.742,0,5.078-0.964,7.004-2.89
				c1.926-1.927,2.889-4.249,2.889-6.964v-20.34c0-0.938,0.334-1.742,1-2.409c0.643-0.665,1.432-0.999,2.372-0.999h0.074
				c0.937,0,1.739,0.334,2.406,0.999c0.644,0.667,0.963,1.471,0.963,2.409v20.34c0,4.617-1.63,8.557-4.89,11.818
				c-3.26,3.258-7.199,4.889-11.818,4.889c-5.506,0-9.928-2.186-13.262-6.558c-3.36,4.372-7.793,6.558-13.3,6.558
				c-4.619,0-8.559-1.631-11.819-4.889c-3.26-3.262-4.89-7.201-4.89-11.818v-20.34c0-0.938,0.334-1.742,1-2.409
				c0.666-0.665,1.457-0.999,2.372-0.999h0.11c0.913,0,1.705,0.334,2.372,0.999c0.667,0.667,0.999,1.471,0.999,2.409V383.293z"/>
			<path fill="#6699FF" d="M298.193,352.506c-1.137,0-2.101-0.395-2.888-1.186c-0.792-0.79-1.188-1.753-1.188-2.891
				c0-1.11,0.396-2.063,1.188-2.852c0.787-0.79,1.751-1.187,2.888-1.187c1.113,0,2.063,0.396,2.853,1.187
				c0.816,0.789,1.225,1.741,1.225,2.852c0,1.138-0.408,2.101-1.225,2.891C300.256,352.111,299.307,352.506,298.193,352.506z
				 M298.231,359.545c0.939,0,1.729,0.334,2.37,0.999c0.667,0.667,1.002,1.471,1.002,2.409v33.676c0,0.939-0.335,1.729-1.002,2.371
				c-0.642,0.666-1.431,1-2.37,1h-0.074c-0.938,0-1.742-0.334-2.408-1c-0.666-0.642-1-1.432-1-2.371v-33.676
				c0-0.938,0.334-1.742,1-2.409c0.666-0.665,1.47-0.999,2.408-0.999H298.231z"/>
			<path fill="#6699FF" d="M313.901,344.354c0.913,0,1.705,0.321,2.373,0.963c0.666,0.669,1,1.47,1,2.409v11.818h6.668
				c0.913,0,1.705,0.334,2.371,0.999c0.668,0.667,1.001,1.471,1.001,2.409v0.073c0,0.939-0.333,1.73-1.001,2.373
				c-0.666,0.665-1.458,0.999-2.371,0.999h-6.668v23.08c0,1.013,0.358,1.877,1.074,2.595c0.716,0.715,1.593,1.073,2.632,1.073h2.962
				c0.913,0,1.705,0.334,2.371,1c0.668,0.667,1.001,1.471,1.001,2.408v0.074c0,0.939-0.333,1.729-1.001,2.371
				c-0.666,0.666-1.458,1-2.371,1h-2.962c-2.916,0-5.411-1.025-7.484-3.075c-2.051-2.074-3.075-4.557-3.075-7.446v-41.752
				c0-0.939,0.332-1.74,0.998-2.409c0.669-0.642,1.457-0.963,2.373-0.963H313.901z"/>
			<path fill="#6699FF" d="M357.729,360.508c1.58,0.494,2.369,1.568,2.369,3.223v0.187c0,1.135-0.455,2.036-1.368,2.703
				c-0.939,0.692-1.952,0.865-3.037,0.52c-1.311-0.444-2.67-0.668-4.076-0.668c-3.705,0-6.868,1.31-9.483,3.928
				c-2.595,2.618-3.891,5.779-3.891,9.485c0,3.68,1.296,6.828,3.891,9.446c2.615,2.618,5.778,3.927,9.483,3.927
				c1.406,0,2.766-0.209,4.076-0.629c1.085-0.347,2.098-0.186,3.037,0.481c0.913,0.667,1.368,1.58,1.368,2.741
				c0,1.629-0.789,2.703-2.369,3.223c-1.978,0.617-4.015,0.926-6.112,0.926c-5.582,0-10.351-1.976-14.301-5.927
				c-3.952-3.951-5.927-8.719-5.927-14.302c0-5.58,1.975-10.349,5.927-14.3c3.95-3.951,8.719-5.927,14.301-5.927
				C353.715,359.545,355.752,359.866,357.729,360.508z"/>
			<path fill="#6699FF" d="M369.881,344.354c0.913,0,1.705,0.321,2.372,0.963c0.666,0.669,0.999,1.47,0.999,2.409v15.114
				c2.938-2.197,6.262-3.296,9.966-3.296c4.619,0,8.57,1.643,11.855,4.927c3.284,3.286,4.927,7.249,4.927,11.892v20.266
				c0,0.939-0.334,1.729-1,2.371c-0.643,0.666-1.434,1-2.371,1h-0.073c-0.939,0-1.741-0.334-2.409-1c-0.666-0.642-1-1.432-1-2.371
				v-20.266c0-2.74-0.964-5.087-2.89-7.039c-1.952-1.951-4.299-2.926-7.039-2.926c-2.766,0-5.125,0.975-7.076,2.926
				c-1.926,1.952-2.89,4.299-2.89,7.039v20.266c0,0.939-0.333,1.729-0.999,2.371c-0.667,0.666-1.459,1-2.372,1h-0.111
				c-0.915,0-1.705-0.334-2.371-1c-0.667-0.642-1-1.432-1-2.371v-48.902c0-0.939,0.333-1.74,1-2.409
				c0.666-0.642,1.456-0.963,2.371-0.963H369.881z"/>
		</g>
	</g>
</g>
</svg>
