<?xml version="1.0" encoding="utf-8"?>
<!-- Generator: Adobe Illustrator 15.1.0, SVG Export Plug-In . SVG Version: 6.00 Build 0)  -->
<!DOCTYPE svg PUBLIC "-//W3C//DTD SVG 1.1//EN" "http://www.w3.org/Graphics/SVG/1.1/DTD/svg11.dtd">
<svg version="1.1" id="Layer_1" xmlns="http://www.w3.org/2000/svg" xmlns:xlink="http://www.w3.org/1999/xlink" x="0px" y="0px"
	 width="800px" height="200px" viewBox="0 0 800 200" enable-background="new 0 0 800 200" xml:space="preserve">
<g>
	<path fill="#6699FF" d="M99.66,104.632H59.104c-15.24,0-27.599,12.359-27.599,27.599c0,15.244,12.358,27.598,27.599,27.598H99.66
		c15.244,0,27.602-12.354,27.602-27.598C127.262,116.991,114.904,104.632,99.66,104.632z M98.367,151.541
		c-10.665,0-19.307-8.646-19.307-19.311s8.642-19.306,19.307-19.306c10.664,0,19.309,8.642,19.309,19.306
		S109.031,151.541,98.367,151.541z"/>
	<path fill="#0E8BE0" d="M154.818,111.814c-6.875-16.729-21.459-29.496-39.245-33.378c-4.642-1.012-9.246-1.102-13.951-1.36
		c-0.489-0.027-0.975-0.076-1.459-0.127c-0.081-0.015-0.192-0.033-0.342-0.059c-0.984-0.163-1.956-0.396-2.921-0.651
		c-0.954-0.251-1.89-0.568-2.814-0.908c-0.105-0.037-0.379-0.151-0.605-0.246c-0.476-0.218-0.945-0.448-1.41-0.687
		c-0.864-0.44-1.697-0.939-2.517-1.458c-0.409-0.257-0.806-0.533-1.202-0.809c-0.094-0.063-0.338-0.249-0.533-0.398
		c-1.52-1.232-2.908-2.621-4.185-4.102c-0.092-0.107-0.376-0.466-0.528-0.656c-0.17-0.237-0.339-0.476-0.504-0.714
		c-0.553-0.796-1.053-1.627-1.53-2.468c-0.363-0.639-0.694-1.296-1.007-1.962c-0.056-0.131-0.323-0.737-0.388-0.908
		c-0.235-0.613-0.437-1.238-0.634-1.864c-0.298-0.948-0.528-1.917-0.738-2.889c-0.053-0.245-0.099-0.493-0.145-0.741
		c-0.017-0.127-0.127-0.83-0.147-1.022c-0.224-2.196-0.176-4.414,0.046-6.608c0.016-0.08,0.034-0.188,0.06-0.334
		c0.081-0.496,0.187-0.984,0.292-1.476c0.209-0.969,0.483-1.923,0.78-2.869c0.148-0.47,0.317-0.931,0.486-1.393
		c0.041-0.113,0.169-0.419,0.268-0.655c0.412-0.899,0.877-1.775,1.368-2.637c0.478-0.841,1.013-1.65,1.563-2.443
		c0.074-0.106,0.311-0.416,0.464-0.619c0.2-0.241,0.404-0.481,0.61-0.72c0.627-0.729,1.305-1.416,1.996-2.087
		c0.345-0.336,0.706-0.655,1.066-0.976c0.146-0.129,0.793-0.648,1.016-0.833c1.412-1.031,2.919-1.932,4.476-2.728
		c0.214-0.108,0.43-0.213,0.646-0.313c-0.004,0.006,0.742-0.325,0.936-0.398c1.075-0.412,2.181-0.739,3.295-1.034
		c0.753-0.199,1.518-0.356,2.285-0.493c0.229-0.035,0.771-0.118,0.936-0.136c0.51-0.052,1.022-0.08,1.532-0.108
		c1.032-0.058,2.067-0.04,3.1,0c0.511,0.021,1.021,0.064,1.531,0.108c0.141,0.014,0.278,0.031,0.418,0.046
		c0.083,0.014,0.2,0.033,0.363,0.059c1.959,0.326,3.873,0.878,5.736,1.559c0.109,0.04,0.409,0.166,0.643,0.264
		c0.314,0.145,0.629,0.297,0.939,0.448c1.016,0.501,1.993,1.076,2.949,1.679c0.41,0.258,0.807,0.534,1.203,0.81
		c0.092,0.065,0.334,0.247,0.528,0.396c0.647,0.527,1.27,1.081,1.876,1.652c0.702,0.661,1.358,1.367,1.997,2.087
		c0.185,0.208,0.36,0.422,0.536,0.637c-0.195-0.223,0.66,0.88,0.812,1.1c1.011,1.454,1.864,3.013,2.618,4.615
		c0.102,0.236,0.26,0.597,0.306,0.723c0.177,0.46,0.331,0.926,0.487,1.393c0.364,1.1,0.642,2.228,0.886,3.358
		c0.053,0.247,0.1,0.495,0.144,0.743c0.019,0.128,0.128,0.829,0.147,1.022c0.105,1.023,0.138,2.054,0.146,3.082
		c0.027,3.537,2.931,6.489,6.491,6.489c3.517,0,6.518-2.952,6.489-6.489c-0.076-9.637-3.618-18.583-9.881-25.852
		c-6.175-7.164-15.065-11.378-24.322-12.622c-18.862-2.533-36.944,10.132-42.024,28.239c-2.624,9.349-1.319,19.328,2.929,27.966
		c4.12,8.378,11.581,14.684,20.09,18.246c4.238,1.773,8.793,2.621,13.378,2.802c2.072,0.082,4.127,0.08,6.195,0.287
		c0.123,0.012,0.477,0.059,0.741,0.095c0.352,0.055,0.702,0.113,1.055,0.176c1.154,0.202,2.298,0.464,3.435,0.749
		c1.926,0.484,3.811,1.115,5.662,1.832c0.101,0.038,0.182,0.07,0.248,0.096c0.007,0.003,0.012,0.005,0.018,0.008
		c0.45,0.195,0.894,0.404,1.338,0.614c1.031,0.487,2.04,1.026,3.034,1.583c1.697,0.954,3.323,2.033,4.894,3.184
		c0.051,0.037,0.094,0.068,0.135,0.099c0.027,0.021,0.057,0.044,0.089,0.069c0.38,0.303,0.75,0.615,1.121,0.93
		c0.864,0.729,1.692,1.5,2.503,2.289c1.392,1.351,2.681,2.803,3.902,4.309c0.013,0.017,0.024,0.031,0.037,0.048
		c0.038,0.049,0.08,0.107,0.133,0.178c0.291,0.389,0.57,0.786,0.848,1.184c0.652,0.931,1.258,1.891,1.844,2.865
		c1.004,1.669,1.881,3.411,2.677,5.187c0.028,0.074,0.065,0.169,0.115,0.295c0.184,0.457,0.353,0.923,0.521,1.387
		c0.396,1.088,0.736,2.196,1.054,3.311c0.501,1.762,0.871,3.559,1.165,5.367c0.037,0.266,0.098,0.69,0.112,0.827
		c0.057,0.51,0.097,1.022,0.137,1.533c0.096,1.206,0.127,2.417,0.134,3.626c0.01,1.833-0.113,3.664-0.313,5.482
		c-0.03,0.206-0.112,0.809-0.142,0.975c-0.081,0.5-0.178,0.994-0.275,1.489c-0.226,1.146-0.51,2.282-0.817,3.409
		c-0.263,0.958-0.569,1.904-0.889,2.844c-0.159,0.468-0.333,0.932-0.507,1.394c-0.049,0.13-0.217,0.546-0.313,0.782
		c-0.778,1.772-1.678,3.491-2.658,5.16c-0.494,0.838-1.023,1.655-1.567,2.463c-0.271,0.404-0.554,0.799-0.837,1.193
		c-0.072,0.1-0.297,0.397-0.451,0.601c-1.212,1.521-2.527,2.958-3.908,4.325c-0.688,0.683-1.407,1.334-2.136,1.973
		c-0.364,0.32-0.738,0.631-1.111,0.939c-0.084,0.069-0.323,0.257-0.519,0.408c-1.588,1.186-3.258,2.262-4.976,3.248
		c-0.849,0.488-1.717,0.936-2.593,1.371c-0.439,0.218-0.886,0.422-1.331,0.627c-0.088,0.039-0.311,0.136-0.518,0.223
		c-1.908,0.77-3.871,1.393-5.858,1.913c-0.971,0.255-1.954,0.464-2.938,0.657c-0.496,0.098-0.996,0.179-1.494,0.262
		c-0.085,0.014-0.154,0.025-0.217,0.036c-0.024,0.003-0.046,0.006-0.074,0.009c-1.882,0.229-3.785,0.327-5.682,0.327
		c-0.825,0-1.649,0-2.474,0c-4.66,0-9.321,0-13.982,0c-10.243,0-20.485,0-30.729,0c-1.335,0-2.665-0.004-4-0.067
		c-1.026-0.048-2.049-0.145-3.07-0.259c-0.002,0-0.007,0-0.011-0.001c-0.073-0.012-0.164-0.026-0.279-0.043
		c-0.499-0.078-0.995-0.17-1.493-0.262c-2.128-0.396-4.222-0.967-6.278-1.646c-0.777-0.255-1.543-0.544-2.306-0.843
		c-0.239-0.099-0.612-0.25-0.73-0.305c-0.447-0.2-0.89-0.414-1.331-0.628c-1.903-0.921-3.729-1.996-5.496-3.158
		c-0.644-0.421-1.27-0.872-1.89-1.327c-0.186-0.144-0.585-0.449-0.7-0.543c-0.377-0.306-0.745-0.622-1.111-0.938
		c-1.592-1.372-3.073-2.867-4.474-4.431c-0.499-0.557-0.975-1.132-1.444-1.713c-0.115-0.149-0.48-0.624-0.576-0.757
		c-0.287-0.392-0.563-0.792-0.837-1.193c-1.197-1.743-2.253-3.579-3.211-5.461c-0.336-0.662-0.646-1.336-0.949-2.013
		c-0.043-0.117-0.313-0.764-0.378-0.932c-0.18-0.46-0.344-0.927-0.507-1.394c-0.72-2.039-1.269-4.137-1.706-6.253
		c-0.104-0.495-0.189-0.992-0.277-1.489c-0.022-0.132-0.083-0.541-0.123-0.807c-0.1-0.844-0.175-1.689-0.232-2.537
		c-0.176-2.553-0.108-5.115,0.112-7.663c0.005-0.061,0.137-1.152,0.142-1.266c0.075-0.481,0.157-0.96,0.245-1.439
		c0.223-1.243,0.521-2.471,0.84-3.691c0.317-1.209,0.705-2.397,1.116-3.577c0.203-0.585,0.43-1.165,0.655-1.742
		c0.289-0.712,0.312-0.767,0.067-0.16c0.166-0.377,0.339-0.75,0.516-1.121c0.607-1.301,1.375-2.513,2.012-3.793
		c0.001-0.003,0.004-0.005,0.005-0.007c0.004-0.009,0.007-0.016,0.011-0.023c0.006-0.008,0.008-0.017,0.012-0.025
		c7.056-14.917,14.112-29.832,21.167-44.747c6.906-14.598,13.811-29.195,20.715-43.792c1.514-3.198,0.919-6.979-2.329-8.881
		c-2.85-1.669-7.366-0.869-8.879,2.329c-7.063,14.932-14.128,29.864-21.19,44.795c-6.905,14.599-13.811,29.195-20.715,43.793
		c0,0-0.001,0.002-0.002,0.002c-2.385,4.812-4.683,9.468-5.988,14.718c-1.314,5.285-1.807,10.859-1.491,16.292
		c0.527,9.112,3.31,18.029,8.094,25.806c9.602,15.606,26.603,25.268,44.814,26.13c8.455,0.401,16.997,0.043,25.458,0.043
		c8.406,0,16.813,0,25.221-0.001c18.295,0,35.133-9.267,45.565-24.14C159.541,148.498,161.616,128.354,154.818,111.814z"/>
	<g>
		<g>
			<path fill="#0E8BE0" d="M214.388,141.342c0,2.282,0.811,4.231,2.43,5.851c1.617,1.618,3.567,2.428,5.849,2.428h16.059
				c1.397,0,2.593,0.496,3.586,1.491c0.993,0.992,1.491,2.188,1.491,3.585v0.11c0,1.399-0.498,2.576-1.491,3.532
				c-0.993,0.993-2.188,1.489-3.586,1.489h-16.059c-5.114,0-9.473-1.801-13.078-5.408c-3.605-3.604-5.408-7.964-5.408-13.078V81.965
				c0-1.398,0.496-2.594,1.489-3.587c0.994-0.957,2.172-1.435,3.532-1.435h0.165c1.361,0,2.539,0.478,3.532,1.435
				c0.993,0.993,1.489,2.188,1.489,3.587V141.342z"/>
			<path fill="#0E8BE0" d="M301.303,108.398c5.887,5.886,8.83,12.986,8.83,21.3v25.108c0,1.399-0.497,2.576-1.49,3.532
				c-0.993,0.993-2.172,1.489-3.531,1.489h-0.167c-1.36,0-2.537-0.496-3.53-1.489c-0.993-0.956-1.489-2.133-1.489-3.532v-2.537
				c-5.704,5.039-12.344,7.559-19.922,7.559c-8.315,0-15.416-2.941-21.302-8.829c-5.887-5.885-8.829-12.985-8.829-21.301
				c0-8.313,2.942-15.414,8.829-21.3c5.886-5.887,12.986-8.83,21.302-8.83C288.316,99.568,295.417,102.512,301.303,108.398z
				 M265.875,115.626c-3.863,3.9-5.794,8.591-5.794,14.072c0,5.518,1.931,10.229,5.794,14.128c3.898,3.862,8.609,5.794,14.128,5.794
				c5.518,0,10.209-1.932,14.072-5.794c3.897-3.899,5.85-8.61,5.85-14.128c0-5.481-1.952-10.172-5.85-14.072
				c-3.863-3.898-8.555-5.849-14.072-5.849C274.484,109.777,269.773,111.728,265.875,115.626z"/>
			<path fill="#0E8BE0" d="M326.356,76.943c1.361,0,2.539,0.478,3.532,1.435c0.993,0.993,1.49,2.188,1.49,3.587v25.164
				c5.665-5.041,12.306-7.561,19.921-7.561c8.314,0,15.415,2.943,21.302,8.83c5.886,5.886,8.829,12.986,8.829,21.3
				c0,8.315-2.943,15.416-8.829,21.301c-5.887,5.888-12.987,8.829-21.302,8.829c-8.313,0-15.396-2.924-21.245-8.773
				c-5.887-5.849-8.848-12.912-8.885-21.19V81.965c0-1.398,0.496-2.594,1.489-3.587c0.994-0.957,2.17-1.435,3.532-1.435H326.356z
				 M351.3,109.888c-5.518,0-10.228,1.95-14.126,5.85c-3.864,3.899-5.795,8.608-5.795,14.127c0,5.482,1.931,10.173,5.795,14.071
				c3.898,3.9,8.608,5.85,14.126,5.85c5.519,0,10.209-1.949,14.072-5.85c3.898-3.898,5.85-8.589,5.85-14.071
				c0-5.519-1.951-10.228-5.85-14.127C361.509,111.838,356.818,109.888,351.3,109.888z"/>
			<path fill="#0E8BE0" d="M446.656,117.172c0.589,1.252,0.644,2.539,0.167,3.863c-0.479,1.288-1.362,2.226-2.649,2.814
				c-5.152,2.318-11.92,5.371-20.308,9.16c-10.412,4.709-17.163,7.763-20.252,9.16c3.973,5.077,9.196,7.615,15.673,7.615
				c4.304,0,8.202-1.27,11.698-3.808c3.384-2.465,5.757-5.665,7.118-9.602c0.809-2.28,2.428-3.422,4.856-3.422
				c1.729,0,3.107,0.718,4.139,2.152c0.993,1.398,1.195,2.924,0.607,4.58c-2.062,5.96-5.666,10.779-10.816,14.458
				c-5.261,3.79-11.129,5.684-17.603,5.684c-8.316,0-15.416-2.941-21.302-8.829c-5.888-5.885-8.829-12.985-8.829-21.301
				c0-8.313,2.941-15.414,8.829-21.3c5.886-5.887,12.985-8.83,21.302-8.83c5.995,0,11.478,1.638,16.444,4.911
				C440.624,107.68,444.265,111.912,446.656,117.172z M419.287,109.888c-5.519,0-10.229,1.95-14.128,5.85
				c-3.862,3.899-5.794,8.608-5.794,14.127c0,0.993,0.073,1.969,0.22,2.925l34.932-15.783
				C430.544,112.26,425.467,109.888,419.287,109.888z"/>
			<path fill="#0E8BE0" d="M465.365,76.943c1.36,0,2.538,0.478,3.53,1.435c0.994,0.993,1.49,2.188,1.49,3.587v72.842
				c0,1.399-0.496,2.576-1.49,3.532c-0.992,0.993-2.17,1.489-3.53,1.489h-0.166c-1.361,0-2.539-0.496-3.531-1.489
				c-0.993-0.956-1.49-2.133-1.49-3.532V81.965c0-1.398,0.497-2.594,1.49-3.587c0.992-0.957,2.17-1.435,3.531-1.435H465.365z"/>
			<path fill="#6699FF" d="M505.705,86.985c-3.606,0-6.678,1.271-9.216,3.808c-2.539,2.54-3.808,5.611-3.808,9.216
				c0,4.379,1.986,7.709,5.959,9.989c1.619,0.92,6.182,2.465,13.687,4.636c6.032,1.802,10.41,3.938,13.134,6.401
				c3.974,3.605,5.96,8.737,5.96,15.396c0,6.475-2.301,11.993-6.898,16.554c-4.562,4.563-10.063,6.843-16.5,6.843h-21.025
				c-1.36,0-2.538-0.496-3.531-1.489c-0.993-0.992-1.489-2.17-1.489-3.532v-0.33c0-1.361,0.496-2.54,1.489-3.532
				c0.993-0.993,2.171-1.489,3.531-1.489h21.578c3.566,0,6.64-1.271,9.215-3.809c2.539-2.539,3.809-5.609,3.809-9.215
				c0-4.305-1.987-7.651-5.961-10.045c-1.729-1.029-6.291-2.703-13.685-5.021c-6.071-1.986-10.449-4.193-13.135-6.622
				c-3.973-3.566-5.96-8.479-5.96-14.734c0-6.474,2.281-11.992,6.843-16.554c4.563-4.563,10.079-6.843,16.556-6.843h14.844
				c1.397,0,2.594,0.496,3.587,1.489c0.957,0.957,1.436,2.135,1.436,3.531v0.332c0,1.361-0.479,2.538-1.436,3.531
				c-0.993,0.993-2.189,1.489-3.587,1.489H505.705z"/>
			<path fill="#6699FF" d="M551.01,134.941c0,4.048,1.435,7.505,4.304,10.374s6.329,4.305,10.376,4.305
				c4.046,0,7.504-1.436,10.374-4.305c2.869-2.869,4.305-6.326,4.305-10.374v-30.297c0-1.397,0.496-2.593,1.489-3.586
				c0.994-0.994,2.188-1.49,3.587-1.49h0.11c1.398,0,2.576,0.496,3.532,1.49c0.993,0.993,1.49,2.188,1.49,3.586v30.297
				c0,4.048,1.434,7.505,4.305,10.374c2.869,2.869,6.327,4.305,10.374,4.305c4.084,0,7.561-1.436,10.43-4.305
				c2.87-2.869,4.305-6.326,4.305-10.374v-30.297c0-1.397,0.496-2.593,1.489-3.586c0.957-0.994,2.133-1.49,3.531-1.49h0.111
				c1.397,0,2.593,0.496,3.586,1.49c0.958,0.993,1.437,2.188,1.437,3.586v30.297c0,6.879-2.43,12.747-7.285,17.604
				c-4.856,4.856-10.725,7.283-17.604,7.283c-8.204,0-14.789-3.255-19.756-9.767c-5.003,6.512-11.607,9.767-19.811,9.767
				c-6.881,0-12.749-2.427-17.604-7.283c-4.856-4.856-7.284-10.725-7.284-17.604v-30.297c0-1.397,0.497-2.593,1.49-3.586
				c0.994-0.994,2.169-1.49,3.532-1.49h0.164c1.361,0,2.54,0.496,3.533,1.49c0.993,0.993,1.489,2.188,1.489,3.586V134.941z"/>
			<path fill="#6699FF" d="M648.354,89.084c-1.692,0-3.128-0.589-4.305-1.767c-1.177-1.177-1.765-2.611-1.765-4.305
				c0-1.655,0.588-3.071,1.765-4.249c1.177-1.177,2.612-1.766,4.305-1.766c1.655,0,3.072,0.589,4.249,1.766
				c1.216,1.178,1.822,2.594,1.822,4.249c0,1.693-0.606,3.128-1.822,4.305C651.427,88.495,650.01,89.084,648.354,89.084z
				 M648.41,99.568c1.397,0,2.574,0.496,3.531,1.49c0.994,0.993,1.491,2.188,1.491,3.586v50.162c0,1.399-0.497,2.576-1.491,3.532
				c-0.957,0.993-2.134,1.489-3.531,1.489h-0.109c-1.399,0-2.595-0.496-3.588-1.489c-0.994-0.956-1.49-2.133-1.49-3.532v-50.162
				c0-1.397,0.496-2.593,1.49-3.586c0.993-0.994,2.188-1.49,3.588-1.49H648.41z"/>
			<path fill="#6699FF" d="M671.753,76.943c1.36,0,2.539,0.478,3.532,1.435c0.993,0.993,1.49,2.188,1.49,3.587v17.604h9.932
				c1.362,0,2.54,0.496,3.533,1.49c0.993,0.993,1.489,2.188,1.489,3.586v0.111c0,1.398-0.496,2.575-1.489,3.531
				c-0.993,0.993-2.171,1.49-3.533,1.49h-9.932v34.379c0,1.509,0.533,2.796,1.6,3.863c1.067,1.066,2.373,1.601,3.919,1.601h4.413
				c1.362,0,2.54,0.496,3.533,1.491c0.993,0.992,1.489,2.188,1.489,3.585v0.11c0,1.399-0.496,2.576-1.489,3.532
				c-0.993,0.993-2.171,1.489-3.533,1.489h-4.413c-4.342,0-8.059-1.525-11.147-4.58c-3.054-3.09-4.58-6.787-4.58-11.092V81.965
				c0-1.398,0.496-2.594,1.489-3.587c0.993-0.957,2.17-1.435,3.532-1.435H671.753z"/>
			<path fill="#6699FF" d="M737.036,101.004c2.353,0.734,3.53,2.336,3.53,4.801v0.274c0,1.693-0.68,3.036-2.041,4.029
				c-1.398,1.03-2.906,1.287-4.525,0.773c-1.949-0.664-3.973-0.994-6.069-0.994c-5.52,0-10.228,1.95-14.127,5.85
				c-3.864,3.899-5.796,8.608-5.796,14.127c0,5.482,1.932,10.173,5.796,14.071c3.899,3.9,8.607,5.85,14.127,5.85
				c2.097,0,4.12-0.312,6.069-0.938c1.619-0.516,3.127-0.276,4.525,0.717c1.361,0.994,2.041,2.355,2.041,4.084
				c0,2.428-1.178,4.029-3.53,4.801c-2.944,0.92-5.979,1.379-9.105,1.379c-8.316,0-15.417-2.941-21.302-8.829
				c-5.887-5.885-8.829-12.985-8.829-21.301c0-8.313,2.942-15.414,8.829-21.3c5.885-5.887,12.985-8.83,21.302-8.83
				C731.057,99.568,734.092,100.047,737.036,101.004z"/>
			<path fill="#6699FF" d="M755.136,76.943c1.359,0,2.538,0.478,3.531,1.435c0.993,0.993,1.489,2.188,1.489,3.587v22.515
				c4.378-3.273,9.326-4.911,14.845-4.911c6.88,0,12.767,2.446,17.658,7.339c4.894,4.893,7.341,10.798,7.341,17.714v30.186
				c0,1.399-0.497,2.576-1.489,3.532c-0.958,0.993-2.135,1.489-3.533,1.489h-0.109c-1.398,0-2.593-0.496-3.587-1.489
				c-0.993-0.956-1.491-2.133-1.491-3.532v-30.186c0-4.082-1.434-7.577-4.304-10.484c-2.906-2.905-6.401-4.359-10.485-4.359
				c-4.12,0-7.634,1.454-10.54,4.359c-2.869,2.907-4.305,6.402-4.305,10.484v30.186c0,1.399-0.496,2.576-1.489,3.532
				c-0.993,0.993-2.172,1.489-3.531,1.489h-0.166c-1.361,0-2.538-0.496-3.531-1.489c-0.993-0.956-1.489-2.133-1.489-3.532V81.965
				c0-1.398,0.496-2.594,1.489-3.587c0.993-0.957,2.17-1.435,3.531-1.435H755.136z"/>
		</g>
	</g>
</g>
</svg>
